PathFileType	4	(X/Y/Z)	C:\Users\Biomechanik\SynologyDrive\AlexP\Athlete_03\Athlete_3_25_03_31\Walking_09\marker_experimental.trc
DataRate	CameraRate	NumFrames	NumMarkers	Units	OrigDataRate	OrigDataStartFrame	OrigNumFrames
200.000000	200.000000	4	53	mm	200.000000	55	222
Frame#	Time	GLAB			RFHD			LFHD			C7			T6			SPINMOL			SPINM2			SPINM3			T12			BELTOL			BELT2			BELT3			SACROL			SACR2			SACR3			LTHOL			LTH2			LTH3			LSHAOL			LSHA2			LSHA3			LHEE			LTOE			LM5			RTH2			RTH3			RSHAOL			RSHA2			RSHA3			RHEE			RTOE			RM5			STRN			XIPH			LACR			LUAOL			LUA2			LUA3			LLAOL			LLA2			LLA3			LWRR			LWRU			RACR			RUAOL			RUA2			RUA3			RLAOL			RLA2			RLA3			RWRR			RWRU			RTHOL			
		X1	Y1	Z1	X2	Y2	Z2	X3	Y3	Z3	X4	Y4	Z4	X5	Y5	Z5	X6	Y6	Z6	X7	Y7	Z7	X8	Y8	Z8	X9	Y9	Z9	X10	Y10	Z10	X11	Y11	Z11	X12	Y12	Z12	X13	Y13	Z13	X14	Y14	Z14	X15	Y15	Z15	X16	Y16	Z16	X17	Y17	Z17	X18	Y18	Z18	X19	Y19	Z19	X20	Y20	Z20	X21	Y21	Z21	X22	Y22	Z22	X23	Y23	Z23	X24	Y24	Z24	X25	Y25	Z25	X26	Y26	Z26	X27	Y27	Z27	X28	Y28	Z28	X29	Y29	Z29	X30	Y30	Z30	X31	Y31	Z31	X32	Y32	Z32	X33	Y33	Z33	X34	Y34	Z34	X35	Y35	Z35	X36	Y36	Z36	X37	Y37	Z37	X38	Y38	Z38	X39	Y39	Z39	X40	Y40	Z40	X41	Y41	Z41	X42	Y42	Z42	X43	Y43	Z43	X44	Y44	Z44	X45	Y45	Z45	X46	Y46	Z46	X47	Y47	Z47	X48	Y48	Z48	X49	Y49	Z49	X50	Y50	Z50	X51	Y51	Z51	X52	Y52	Z52	X53	Y53	Z53	

56	0.275	-98.65092468261734	1609.234619140625	291.1566162109375	-149.7302093505861	1633.376220703125	355.265625	-141.8245391845705	1632.348510742188	217.8955993652343	-323.3460388183595	1447.214599609375	278.9060363769531	-381.5175781250001	1278.218872070312	273.9906921386718	-389.641571044922	1238.18603515625	252.7240142822265	-392.9265441894532	1230.370483398438	302.5578918457031	-384.4842224121095	1173.962158203125	268.0431518554687	-360.9743041992189	1108.493530273438	268.9012451171874	-397.2447509765626	1073.637939453125	255.4666748046874	-394.7195434570314	1071.32275390625	305.8455505371093	-400.8592529296876	1011.389526367188	276.8921203613281	-383.704315185547	962.1984252929688	246.9751434326171	-381.9985656738282	959.16357421875	298.3809814453124	-397.0116271972657	901.055908203125	269.8385925292968	-224.3131256103516	679.4075927734375	59.2576637268066	-249.0745697021485	611.057861328125	88.33120727539058	-206.8874664306641	622.139892578125	65.11877441406246	-254.9315185546875	405.2028198242188	53.5050544738769	-329.6971740722656	388.9801940917969	75.72668457031244	-290.4152221679688	357.3603515625	69.56343078613276	-454.0017395019532	261.8741149902344	186.1264495849609	-317.7620849609376	89.05590820312499	176.9384002685546	-373.9359741210938	100.3713989257812	87.84389495849602	-229.2333374023439	637.2894897460938	447.9723510742187	-276.0899963378907	630.4178466796875	432.0311889648437	-296.8946228027344	338.1146850585938	421.0081176757812	-262.9748840332032	266.8856811523438	418.7859191894531	-309.5204467773438	279.2681579589844	405.3822326660156	-340.0798950195313	66.03544616699217	294.6433715820312	-127.0834350585938	46.84546661376952	305.3058776855469	-181.8353271484376	37.43770217895506	406.3568420410156	-154.3144989013673	1345.252685546875	274.7210998535156	-137.5088806152345	1201.58935546875	271.2535400390625	-249.4139862060548	1412.407470703125	102.9529571533203	-260.7098083496094	1260.808715820312	-0.3681274652481558	-276.4717102050782	1200.557006835938	-21.4628295898438	-229.7000732421876	1203.255493164062	-1.909016966819805	-235.4436035156251	998.9274291992188	-56.73568344116215	-267.6415710449219	928.311279296875	-42.4590339660645	-221.5556793212891	938.9949951171875	-58.34590530395512	-188.1935119628907	840.4344482421875	-64.0926208496094	-146.4755096435547	845.6787109375	2.814811944961521	-237.1714630126955	1399.229248046875	445.5787963867187	-249.6239624023439	1250.460205078125	545.5087890625	-223.8431701660158	1189.482788085938	550.0276489257812	-272.2064208984377	1192.506225585938	568.045166015625	-219.5304260253908	974.1367797851562	594.2611083984375	-153.134963989258	931.2327270507812	609.0875854492188	-198.2254943847658	915.1151733398438	593.2457885742188	-145.6128997802736	841.2952880859375	596.4810791015625	-113.9658737182619	835.5130615234375	520.8679809570312	-289.0993652343751	689.4165649414062	443.1958312988281	
57	0.28	-91.77954864501969	1609.518798828125	290.7988891601562	-142.7808380126955	1633.802856445312	354.9089965820312	-134.9617462158205	1632.603149414062	217.5344543457031	-316.6442260742189	1447.690063476562	278.8875732421874	-374.9134216308595	1278.704833984375	274.2394104003906	-383.0479736328126	1238.671630859375	253.0282745361328	-386.3264160156251	1230.893432617188	302.8676147460937	-377.9264221191407	1174.454467773438	268.3896484374999	-354.4844665527345	1108.98681640625	269.2592773437499	-390.985321044922	1074.1513671875	255.7238464355468	-388.4950256347657	1071.779052734375	306.1023559570312	-394.5502014160157	1011.876831054688	277.0765991210937	-377.1590576171876	962.8720703125	246.6957550048828	-375.7443847656251	959.6358032226562	298.1082458496093	-390.7272949218751	901.6644897460938	269.2489318847656	-214.8328247070313	680.5830078125	59.20347976684566	-239.3669433593751	611.8291625976562	87.41506195068355	-196.8566131591797	623.4519653320312	64.98779296874996	-241.9979858398438	403.9509887695312	53.98805618286129	-316.4588623046875	386.0022583007812	75.85060119628901	-276.374267578125	355.2777709960938	69.89566040039057	-438.3200073242188	255.2584686279297	186.0948638916015	-295.8884277343751	87.42549896240233	176.5571136474609	-352.4845275878906	96.81698608398435	87.48379516601555	-226.7563018798829	637.4049072265625	448.0491638183593	-273.5855712890626	631.1646118164062	431.7046813964843	-296.4321594238282	338.6604309082031	420.4715270996093	-262.7250061035157	267.313232421875	418.5561523437499	-309.1413574218751	279.8298034667969	404.8410339355468	-339.7871093750001	66.60552978515624	294.1723327636718	-126.9421768188477	46.68802642822265	305.2757568359375	-181.7700805664063	37.46706390380858	406.2788391113281	-147.7436981201173	1345.722778320312	274.6555786132812	-131.0149993896486	1202.005981445312	271.3779602050781	-242.9159088134767	1412.738159179688	102.8914794921875	-255.059051513672	1261.074462890625	-0.4289340972900859	-271.2636413574219	1200.878784179688	-21.35927200317388	-224.3375854492188	1203.387451171875	-2.046334981918376	-232.1145172119141	999.1983032226562	-56.93132781982426	-265.1613769531251	928.9637451171875	-42.59965515136724	-219.0393524169922	939.0519409179688	-58.79293441772465	-187.0923309326172	840.0941772460938	-65.08622741699222	-144.9582977294922	844.4278564453125	1.655899047851536	-230.3744049072267	1399.979370117188	445.4881286621093	-242.1735839843752	1251.448120117188	545.77294921875	-216.109817504883	1190.5810546875	550.3167724609375	-264.4611206054689	1193.427368164062	568.4262084960938	-209.6111450195314	975.2398681640625	594.3818359375	-142.5485839843752	933.2781982421875	608.7767944335938	-187.4335784912111	916.5664672851562	593.0191650390625	-133.6674652099611	843.5454711914062	595.6862182617188	-102.1896057128908	838.5877685546875	519.9694213867188	-285.9335021972657	690.2802734375	442.8357849121093	
58	0.285	-84.91638946533219	1609.737548828125	290.4066772460938	-135.8397216796877	1634.162963867188	354.517333984375	-128.1115875244142	1632.784301757812	217.1386413574218	-309.9375610351564	1448.092529296875	278.8482666015624	-368.3109741210939	1279.124267578125	274.4646606445312	-376.4572753906251	1239.09033203125	253.3075256347656	-379.7372131347657	1231.35009765625	303.1520080566406	-371.377166748047	1174.880249023438	268.7128601074218	-348.0056152343751	1109.410278320312	269.5895385742187	-384.7205810546876	1074.605834960938	255.9163360595703	-382.2808227539064	1072.174926757812	306.2953186035156	-388.2541503906251	1012.30517578125	277.1945190429687	-370.6388549804689	963.458740234375	246.4182434082031	-369.5072021484376	960.0391235351562	297.8364562988281	-384.434051513672	902.1885375976562	268.6821899414062	-205.4796905517578	681.7345581054688	59.12269210815426	-229.7754211425782	612.56103515625	86.4602890014648	-186.9511413574219	624.7234497070312	64.85289001464841	-229.171875	402.631103515625	54.50752258300777	-303.2327270507812	382.8877258300781	76.09858703613276	-262.3718566894531	353.1065979003906	70.24315643310543	-422.3736572265626	248.4164886474609	186.0140228271484	-273.9369506835938	85.79141235351561	176.1122741699218	-330.8933410644531	93.24691009521483	87.05792236328119	-224.2423248291017	637.49951171875	448.1229248046874	-271.0303039550782	631.8795166015625	431.3762817382812	-295.8965454101563	339.19384765625	419.9349060058593	-262.4103088378907	267.727783203125	418.3020324707031	-308.7014465332032	280.382568359375	404.3001403808593	-339.4929199218751	67.1780548095703	293.6913757324218	-126.8090820312501	46.52341079711913	305.2363891601562	-181.7029571533204	37.50116729736327	406.1911010742187	-141.1666717529298	1346.10986328125	274.570556640625	-124.5217895507814	1202.3369140625	271.489013671875	-236.4029083251954	1412.986694335938	102.8113784790039	-249.4185485839845	1261.269653320312	-0.5093930363655549	-266.0605468750001	1201.12841796875	-21.28057670593267	-218.986297607422	1203.447387695312	-2.211045503616373	-228.7759094238282	999.4237670898438	-57.14829254150395	-262.6452941894532	929.5723876953125	-42.74776077270513	-216.5009765625001	939.0805053710938	-59.25445175170903	-185.9469299316407	839.75439453125	-66.07519531250003	-143.4146881103516	843.1932983398438	0.4955636560916637	-223.5696258544924	1400.650512695312	445.3777160644531	-234.7455139160158	1252.364135742188	546.021484375	-208.4107513427736	1191.607421875	550.60400390625	-256.7575683593752	1194.286499023438	568.78515625	-199.7292785644533	976.295654296875	594.4833374023438	-132.0201721191408	935.2894897460938	608.469482421875	-176.6779632568361	917.9866333007812	592.765869140625	-121.7726364135744	845.7807006835938	594.863525390625	-90.43377685546891	841.6829833984375	519.0650024414062	-282.7287902832032	691.1018676757812	442.4615783691406	
59	0.29	-78.06012725830094	1609.888916015625	289.9810791015625	-128.9059143066408	1634.454345703125	354.0921020507812	-121.272674560547	1632.890258789062	216.7093353271484	-303.2247619628908	1448.420166015625	278.7885437011718	-361.7095031738282	1279.475952148438	274.6668090820312	-369.8690185546876	1239.440551757812	253.5618133544921	-373.1582946777345	1231.738891601562	303.4111328124999	-364.8360290527345	1175.23779296875	269.0126037597656	-341.5371093750001	1109.76220703125	269.8910217285156	-378.4483337402345	1075.000610351562	256.0444335937499	-376.0744934082032	1072.510375976562	306.4247741699218	-381.9698486328126	1012.674133300781	277.2464904785156	-364.1467285156251	963.9560546875	246.1448516845703	-363.2875061035157	960.37158203125	297.5678100585937	-378.1311035156251	902.6251220703125	268.1422119140624	-196.2510528564453	682.8546752929688	59.01808166503903	-220.2930755615235	613.2474975585938	85.47666168212886	-177.1653747558594	625.9461059570312	64.71921539306638	-216.4480285644532	401.2454223632812	55.05873870849605	-290.0160827636719	379.6455383300781	76.45540618896479	-248.4071807861328	350.85595703125	70.59966278076168	-406.1607360839844	241.3750457763672	185.8802185058593	-251.9190063476563	84.16946411132811	175.5984497070312	-309.1749267578125	89.68308258056639	86.55970764160151	-221.6756744384767	637.5725708007812	448.1921081542968	-268.4117736816407	632.5587768554688	431.0505676269531	-295.2817993164063	339.7117614746094	419.4032592773437	-262.0272216796876	268.1252746582031	418.0299377441406	-308.1964111328126	280.9238891601562	403.7641601562499	-339.1980590820313	67.74916839599608	293.2036437988281	-126.6870651245118	46.3527717590332	305.1873474121094	-181.635223388672	37.54003906249999	406.0944824218749	-134.5820617675783	1346.411254882812	274.4662780761719	-118.029266357422	1202.578979492188	271.5875244140625	-229.8745574951173	1413.150268554688	102.7130889892578	-243.7882843017579	1261.392456054688	-0.6084704399109334	-260.8575439453126	1201.302856445312	-21.22892189025884	-213.6448364257813	1203.43310546875	-2.401472568512002	-225.4243469238282	999.6002197265625	-57.38579940795903	-260.0901489257813	930.1325073242188	-42.90504837036138	-213.9371948242188	939.0771484375	-59.73009109497075	-184.7528839111329	839.4088134765625	-67.0590515136719	-141.8368835449219	841.9716186523438	-0.6679032444954179	-216.7569732666017	1401.239624023438	445.2486267089843	-227.3379669189455	1253.20361328125	546.2542724609375	-200.7418823242189	1192.5576171875	550.8881225585938	-249.0928344726564	1195.077880859375	569.12255859375	-189.881057739258	977.3013305664062	594.5671997070312	-121.5454406738283	937.2610473632812	608.1635131835938	-165.9576568603517	919.37255859375	592.488037109375	-109.930976867676	847.9951171875	594.013671875	-78.70375061035172	844.7922973632812	518.1549072265625	-279.4736328125001	691.8764038085938	442.0810546874999	
